# xmcd
#
# Track frame offsets: 
#        150
#        21968
#        34751
#        54063
#        77220
#        96417
#        112667
#        133347
#        150650
#        168645
#        189103
#        206680
#        225849
#        242207
#        257781
#        269697
#        287699
#        307575
#
# Disc length: 4430 seconds
#
# Revision: 0
# Processed by: cddbd v1.5.1PL0 Copyright (c) Steve Scherf et al.
# Submitted via: ExactAudioCopy v0.95a5
#
DISCID=eb114c12
DTITLE=Various Artist - Soul Classics
DYEAR=1900
DGENRE=Soul
TTITLE0=Barry White - Just The Way You Are
TTITLE1=Nathalie Cole - This Will Be
TTITLE2=Dionne Warwick - Heartbreaker
TTITLE3=Ashford and Simpson - Solid
TTITLE4=The Temptations - Treat Her Like A Lady
TTITLE5=The Pointer Sisters - He's So Shy
TTITLE6=Timmy Thomas - Why Ean't We Live Together
TTITLE7=Marvin Gaye - What's Going On
TTITLE8=Kokomo - A Little Bit Further Away
TTITLE9=Gladys Knight and The Pips - The Way We Were
TTITLE10=Kool and The Gang - Cherish (The Love)
TTITLE11=Michael Jackson - One Day In Your Life
TTITLE12=Commodores - Three Times A Lady
TTITLE13=Stephanie Mills - Never Knew Love Like This Before
TTITLE14=The Three Degrees - Year Of Decision
TTITLE15=Detroit Spinners - Working My Way Back To You
TTITLE16=Pasadenas - Tribute (Right On)
TTITLE17=Aretha Franklin - Freeway Of Love
EXTD=
EXTT0=
EXTT1=
EXTT2=
EXTT3=
EXTT4=
EXTT5=
EXTT6=
EXTT7=
EXTT8=
EXTT9=
EXTT10=
EXTT11=
EXTT12=
EXTT13=
EXTT14=
EXTT15=
EXTT16=
EXTT17=
PLAYORDER=
